<?xml version="1.0" encoding="utf-8"?>
<!-- Generator: Adobe Illustrator 23.1.0, SVG Export Plug-In . SVG Version: 6.00 Build 0)  -->
<svg version="1.1" id="Слой_1" xmlns="http://www.w3.org/2000/svg" xmlns:xlink="http://www.w3.org/1999/xlink" x="0px" y="0px"
	 viewBox="0 0 460.8 259.2" style="enable-background:new 0 0 460.8 259.2;" xml:space="preserve">
<style type="text/css">
	.st0{fill-rule:evenodd;clip-rule:evenodd;fill:#FFCC00;}
	.st1{fill-rule:evenodd;clip-rule:evenodd;fill:#FFFFFF;}
</style>
<g>
	<path class="st0" d="M268.87,82.58c13.22,7.03,21.06,13.54,21.06,31.42c0,12.58,0,25.16,0,37.74c0,0-8.32-5.83-24.95-17.49
		c-10.39-7.57-13.61-15.45-13.61-28.35c0,0-0.05-11.12-0.16-33.37C262.98,79.24,268.87,82.58,268.87,82.58z"/>
	<path class="st0" d="M325.56,108.51c-17.51,9.31-27.9,17.94-27.9,41.64c0,16.67,0,33.34,0,50.01c0,0,11.02-7.73,33.05-23.18
		c13.77-10.03,18.03-20.48,18.03-37.56c0,0,0.07-14.74,0.21-44.21C333.36,104.07,325.56,108.51,325.56,108.51z"/>
	<path class="st1" d="M311.97,190.12l18.74-13.15c13.77-10.03,18.03-20.48,18.03-37.56l0.13-27.06l-9,5.12
		c-17.51,9.31-27.9,17.94-27.9,41.64V190.12z"/>
	<polygon class="st1" points="132.27,77.89 111.84,77.89 111.84,170.15 165.07,170.15 165.07,150.91 132.27,150.91 	"/>
	<polygon class="st1" points="242.46,77.89 222.03,77.89 222.03,170.15 289.93,170.15 289.93,150.91 242.46,150.91 	"/>
	<polygon class="st1" points="224.11,77.89 156.26,77.89 152.7,96.47 177.08,96.47 162.72,170.15 183.15,170.15 197.51,96.47 
		220.56,96.47 	"/>
	<path class="st1" d="M114.87,186.19h-3.03v13.67h3.03V186.19L114.87,186.19z M131.97,186.19h-3.03v8.46h-0.02l-6.54-8.46h-2.56
		v13.67h3.03v-8.42h0.02l6.52,8.42h2.58V186.19L131.97,186.19z M146.06,186.19h-10.23v2.75h3.61v10.92h3.03v-10.92h3.59V186.19
		L146.06,186.19z M152.95,197.1v-3.18h4.88v-2.75h-4.88v-2.23h5.43v-2.75h-8.46v13.67h8.55v-2.75H152.95L152.95,197.1z
		 M169.89,199.86h3.79l-3.91-5.33c2.11-0.49,3.18-2.07,3.18-4.06c0-2.38-1.58-4.28-4.65-4.28h-5.47v13.67h3.03v-5.18h0.61
		L169.89,199.86L169.89,199.86z M165.87,188.94h1.99c1.21,0,1.89,0.59,1.89,1.6c0,1.13-0.68,1.6-1.89,1.6h-1.99V188.94
		L165.87,188.94z M189.61,186.19h-3.03v8.46h-0.02l-6.54-8.46h-2.56v13.67h3.03v-8.42h0.02l6.52,8.42h2.58V186.19L189.61,186.19z
		 M203.8,199.86h3.38l-5.39-13.67h-3.2l-5.39,13.67h3.4l0.96-2.77h5.27L203.8,199.86L203.8,199.86z M198.51,194.39l1.68-4.82
		l1.7,4.82H198.51L198.51,194.39z M218.48,186.19h-10.23v2.75h3.61v10.92h3.03v-10.92h3.59V186.19L218.48,186.19z M225.36,186.19
		h-3.03v13.67h3.03V186.19L225.36,186.19z M236.74,185.89c-4.06,0-7.21,2.85-7.21,7.13c0,4.28,3.15,7.13,7.21,7.13
		c4.06,0,7.21-2.85,7.21-7.13C243.95,188.74,240.8,185.89,236.74,185.89L236.74,185.89z M236.74,189.02c2.19,0,3.87,1.54,3.87,4
		c0,2.46-1.68,4-3.87,4c-2.19,0-3.87-1.54-3.87-4C232.88,190.56,234.55,189.02,236.74,189.02L236.74,189.02z M260.27,186.19h-3.03
		v8.46h-0.02l-6.54-8.46h-2.56v13.67h3.03v-8.42h0.02l6.52,8.42h2.58V186.19L260.27,186.19z M274.46,199.86h3.38l-5.39-13.67h-3.2
		l-5.39,13.67h3.4l0.96-2.77h5.27L274.46,199.86L274.46,199.86z M269.17,194.39l1.68-4.82l1.7,4.82H269.17L269.17,194.39z
		 M284.45,186.19h-3.03v13.67h8.48v-2.85h-5.45V186.19z"/>
	<path class="st0" d="M313.18,66.45c-9.74,5.18-15.52,9.98-15.52,23.16c0,9.27,0,18.55,0,27.82c0,0,6.13-4.3,18.39-12.9
		c7.66-5.58,10.03-11.39,10.03-20.9c0,0,0.04-8.2,0.12-24.6C317.52,63.98,313.18,66.45,313.18,66.45z"/>
</g>
</svg>
